<svg xmlns="http://www.w3.org/2000/svg" viewBox="0 0 64 64">
  <defs>
    <radialGradient id="bg" cx="30%" cy="20%" r="90%">
      <stop offset="0%" stop-color="#3a1212"/>
      <stop offset="60%" stop-color="#1c0606"/>
      <stop offset="100%" stop-color="#0a0202"/>
    </radialGradient>
    <radialGradient id="led" cx="35%" cy="35%" r="65%">
      <stop offset="0%" stop-color="#fecaca"/>
      <stop offset="35%" stop-color="#ef4444"/>
      <stop offset="100%" stop-color="#7f1d1d"/>
    </radialGradient>
    <radialGradient id="ledDim" cx="35%" cy="35%" r="65%">
      <stop offset="0%" stop-color="#7f1d1d"/>
      <stop offset="100%" stop-color="#2a0808"/>
    </radialGradient>
  </defs>
  <rect width="64" height="64" rx="14" fill="url(#bg)"/>
  <rect x="0" y="0" width="64" height="22" rx="14" fill="rgba(255,255,255,0.06)"/>
  <g>
    <circle cx="22" cy="14" r="2.2" fill="url(#led)"/>
    <circle cx="28" cy="14" r="2.2" fill="url(#led)"/>
    <circle cx="34" cy="14" r="2.2" fill="url(#led)"/>
    <circle cx="40" cy="14" r="2.2" fill="url(#led)"/>
    <circle cx="16" cy="20" r="2.2" fill="url(#led)"/>
    <circle cx="46" cy="20" r="2.2" fill="url(#led)"/>
    <circle cx="10" cy="26" r="2.2" fill="url(#ledDim)"/>
    <circle cx="22" cy="26" r="2.4" fill="url(#led)"/>
    <circle cx="40" cy="26" r="2.4" fill="url(#led)"/>
    <circle cx="52" cy="26" r="2.2" fill="url(#ledDim)"/>
    <circle cx="10" cy="32" r="2.2" fill="url(#ledDim)"/>
    <circle cx="52" cy="32" r="2.2" fill="url(#ledDim)"/>
    <circle cx="10" cy="38" r="2.2" fill="url(#led)"/>
    <circle cx="22" cy="38" r="2.4" fill="url(#led)"/>
    <circle cx="40" cy="38" r="2.4" fill="url(#led)"/>
    <circle cx="52" cy="38" r="2.2" fill="url(#led)"/>
    <circle cx="16" cy="44" r="2.2" fill="url(#led)"/>
    <circle cx="28" cy="44" r="2.4" fill="url(#led)"/>
    <circle cx="34" cy="44" r="2.4" fill="url(#led)"/>
    <circle cx="46" cy="44" r="2.2" fill="url(#led)"/>
    <circle cx="22" cy="50" r="2.2" fill="url(#led)"/>
    <circle cx="28" cy="50" r="2.2" fill="url(#led)"/>
    <circle cx="34" cy="50" r="2.2" fill="url(#led)"/>
    <circle cx="40" cy="50" r="2.2" fill="url(#led)"/>
  </g>
</svg>
